<svg id="visual" viewBox="0 0 960 540" width="960" height="540" xmlns="http://www.w3.org/2000/svg" xmlns:xlink="http://www.w3.org/1999/xlink" version="1.1"><path d="M0 347L13.3 355.8C26.7 364.7 53.3 382.3 80 389.7C106.7 397 133.3 394 160 394C186.7 394 213.3 397 240 393.2C266.7 389.3 293.3 378.7 320 371.2C346.7 363.7 373.3 359.3 400 360.2C426.7 361 453.3 367 480 371.2C506.7 375.3 533.3 377.7 560 372.8C586.7 368 613.3 356 640 358.8C666.7 361.7 693.3 379.3 720 386C746.7 392.7 773.3 388.3 800 381C826.7 373.7 853.3 363.3 880 365.5C906.7 367.7 933.3 382.3 946.7 389.7L960 397L960 541L946.7 541C933.3 541 906.7 541 880 541C853.3 541 826.7 541 800 541C773.3 541 746.7 541 720 541C693.3 541 666.7 541 640 541C613.3 541 586.7 541 560 541C533.3 541 506.7 541 480 541C453.3 541 426.7 541 400 541C373.3 541 346.7 541 320 541C293.3 541 266.7 541 240 541C213.3 541 186.7 541 160 541C133.3 541 106.7 541 80 541C53.3 541 26.7 541 13.3 541L0 541Z" fill="#ff737a"></path><path d="M0 423L13.3 418.8C26.7 414.7 53.3 406.3 80 405.5C106.7 404.7 133.3 411.3 160 416.2C186.7 421 213.3 424 240 427.3C266.7 430.7 293.3 434.3 320 436.2C346.7 438 373.3 438 400 439C426.7 440 453.3 442 480 435.3C506.7 428.7 533.3 413.3 560 412.3C586.7 411.3 613.3 424.7 640 431.3C666.7 438 693.3 438 720 432C746.7 426 773.3 414 800 408.7C826.7 403.3 853.3 404.7 880 409.2C906.7 413.7 933.3 421.3 946.7 425.2L960 429L960 541L946.7 541C933.3 541 906.7 541 880 541C853.3 541 826.7 541 800 541C773.3 541 746.7 541 720 541C693.3 541 666.7 541 640 541C613.3 541 586.7 541 560 541C533.3 541 506.7 541 480 541C453.3 541 426.7 541 400 541C373.3 541 346.7 541 320 541C293.3 541 266.7 541 240 541C213.3 541 186.7 541 160 541C133.3 541 106.7 541 80 541C53.3 541 26.7 541 13.3 541L0 541Z" fill="#f9646b"></path><path d="M0 456L13.3 455.5C26.7 455 53.3 454 80 454.5C106.7 455 133.3 457 160 460C186.7 463 213.3 467 240 468.5C266.7 470 293.3 469 320 471.3C346.7 473.7 373.3 479.3 400 482.5C426.7 485.7 453.3 486.3 480 485.5C506.7 484.7 533.3 482.3 560 483C586.7 483.7 613.3 487.3 640 485C666.7 482.7 693.3 474.3 720 473.3C746.7 472.3 773.3 478.7 800 479.3C826.7 480 853.3 475 880 474.3C906.7 473.7 933.3 477.3 946.7 479.2L960 481L960 541L946.7 541C933.3 541 906.7 541 880 541C853.3 541 826.7 541 800 541C773.3 541 746.7 541 720 541C693.3 541 666.7 541 640 541C613.3 541 586.7 541 560 541C533.3 541 506.7 541 480 541C453.3 541 426.7 541 400 541C373.3 541 346.7 541 320 541C293.3 541 266.7 541 240 541C213.3 541 186.7 541 160 541C133.3 541 106.7 541 80 541C53.3 541 26.7 541 13.3 541L0 541Z" fill="#f2545b"></path></svg>