<svg id="visual" viewBox="0 0 960 540" width="960" height="540" xmlns="http://www.w3.org/2000/svg" xmlns:xlink="http://www.w3.org/1999/xlink" version="1.1"><path d="M0 157L13.3 162.2C26.7 167.3 53.3 177.7 80 180.2C106.7 182.7 133.3 177.3 160 177.8C186.7 178.3 213.3 184.7 240 180.3C266.7 176 293.3 161 320 155.3C346.7 149.7 373.3 153.3 400 160.2C426.7 167 453.3 177 480 182.5C506.7 188 533.3 189 560 190.5C586.7 192 613.3 194 640 189.5C666.7 185 693.3 174 720 166.2C746.7 158.3 773.3 153.7 800 154.8C826.7 156 853.3 163 880 170.2C906.7 177.3 933.3 184.7 946.7 188.3L960 192L960 0L946.7 0C933.3 0 906.7 0 880 0C853.3 0 826.7 0 800 0C773.3 0 746.7 0 720 0C693.3 0 666.7 0 640 0C613.3 0 586.7 0 560 0C533.3 0 506.7 0 480 0C453.3 0 426.7 0 400 0C373.3 0 346.7 0 320 0C293.3 0 266.7 0 240 0C213.3 0 186.7 0 160 0C133.3 0 106.7 0 80 0C53.3 0 26.7 0 13.3 0L0 0Z" fill="#ff737a"></path><path d="M0 121L13.3 124.2C26.7 127.3 53.3 133.7 80 137C106.7 140.3 133.3 140.7 160 133.2C186.7 125.7 213.3 110.3 240 108.2C266.7 106 293.3 117 320 120.5C346.7 124 373.3 120 400 118C426.7 116 453.3 116 480 113C506.7 110 533.3 104 560 104.7C586.7 105.3 613.3 112.7 640 119C666.7 125.3 693.3 130.7 720 131.3C746.7 132 773.3 128 800 123.5C826.7 119 853.3 114 880 112.8C906.7 111.7 933.3 114.3 946.7 115.7L960 117L960 0L946.7 0C933.3 0 906.7 0 880 0C853.3 0 826.7 0 800 0C773.3 0 746.7 0 720 0C693.3 0 666.7 0 640 0C613.3 0 586.7 0 560 0C533.3 0 506.7 0 480 0C453.3 0 426.7 0 400 0C373.3 0 346.7 0 320 0C293.3 0 266.7 0 240 0C213.3 0 186.7 0 160 0C133.3 0 106.7 0 80 0C53.3 0 26.7 0 13.3 0L0 0Z" fill="#f9646b"></path><path d="M0 84L13.3 81.5C26.7 79 53.3 74 80 73.8C106.7 73.7 133.3 78.3 160 80.2C186.7 82 213.3 81 240 80C266.7 79 293.3 78 320 78.8C346.7 79.7 373.3 82.3 400 83C426.7 83.7 453.3 82.3 480 81.5C506.7 80.7 533.3 80.3 560 74.8C586.7 69.3 613.3 58.7 640 54C666.7 49.3 693.3 50.7 720 54.3C746.7 58 773.3 64 800 68.3C826.7 72.7 853.3 75.3 880 77.3C906.7 79.3 933.3 80.7 946.7 81.3L960 82L960 0L946.7 0C933.3 0 906.7 0 880 0C853.3 0 826.7 0 800 0C773.3 0 746.7 0 720 0C693.3 0 666.7 0 640 0C613.3 0 586.7 0 560 0C533.3 0 506.7 0 480 0C453.3 0 426.7 0 400 0C373.3 0 346.7 0 320 0C293.3 0 266.7 0 240 0C213.3 0 186.7 0 160 0C133.3 0 106.7 0 80 0C53.3 0 26.7 0 13.3 0L0 0Z" fill="#f2545b"></path></svg>